<?xml version="1.0" encoding="UTF-8" standalone="no"?>
<!DOCTYPE svg PUBLIC "-//W3C//DTD SVG 1.1//EN" "http://www.w3.org/Graphics/SVG/1.1/DTD/svg11.dtd">
<svg version="1.1" xmlns="http://www.w3.org/2000/svg" xmlns:xlink="http://www.w3.org/1999/xlink" preserveAspectRatio="xMidYMid meet" viewBox="0 0 600 600" width="600" height="600"><defs><path d="M-1 -1L601 -1L601 601L-1 601L-1 -1Z" id="a6boyLMPUj"></path><path d="M461.74 219.36C462.52 285.59 390.75 339.83 301.56 340.41C212.38 340.98 139.34 287.69 138.57 221.46C137.79 155.23 209.56 100.99 298.74 100.42C387.93 99.84 460.96 153.14 461.74 219.36Z" id="a6xwbGOHIG"></path><path d="M353.86 219.24C354.12 241.32 330.2 259.39 300.47 259.59C270.74 259.78 246.4 242.01 246.14 219.94C245.88 197.86 269.8 179.78 299.53 179.59C329.26 179.4 353.6 197.16 353.86 219.24Z" id="b4sUKHlMvI"></path><path d="M461.59 380.64C460.81 446.86 387.77 500.16 298.59 499.58C209.41 499.01 137.64 444.77 138.41 378.54C139.19 312.31 212.23 259.02 301.41 259.59C390.59 260.17 462.37 314.41 461.59 380.64Z" id="gqffMiq98"></path><path d="M138.41 379.59L121.92 379.59L121.92 219.59L138.41 219.59C137.2 248.76 150.57 275.56 178.49 300C206.42 324.44 247.16 337.91 300.71 340.42C300.47 360.89 300.33 373.69 300.27 378.81C300.26 379.24 299.91 379.6 299.47 379.6C277.99 379.59 224.31 379.59 138.41 379.59Z" id="dASmNEv33"></path><path d="M300 218.55L353.86 218.55L461.75 218.55L493.91 218.55L493.91 379.59L461.75 379.7C464.69 351.76 451.16 325.19 421.15 300C391.15 274.81 350.76 261.34 300 259.59L300 218.55Z" id="bfpdnf3oV"></path><path d="M99.43 361.85L500.57 361.85L500.57 379.59L99.43 379.59L99.43 361.85Z" id="a3m6E5AFxZ"></path><path d="M353.86 380.27C354.12 402.35 330.2 420.43 300.47 420.62C270.74 420.81 246.4 403.05 246.14 380.97C245.88 358.9 269.8 340.82 299.53 340.62C329.26 340.43 353.61 358.2 353.86 380.27Z" id="a4MpS5y5Qw"></path></defs><g><g><g><use xlink:href="#a6boyLMPUj" opacity="1" fill="#35b285" fill-opacity="1"></use><g><use xlink:href="#a6boyLMPUj" opacity="1" fill-opacity="0" stroke="#01f64d" stroke-width="0" stroke-opacity="1"></use></g></g><g><use xlink:href="#a6xwbGOHIG" opacity="1" fill="#ffffff" fill-opacity="1"></use><g><use xlink:href="#a6xwbGOHIG" opacity="1" fill-opacity="0" stroke="#4f2904" stroke-width="0" stroke-opacity="1"></use></g></g><g><use xlink:href="#b4sUKHlMvI" opacity="1" fill="#35b285" fill-opacity="1"></use><g><use xlink:href="#b4sUKHlMvI" opacity="1" fill-opacity="0" stroke="#4f2904" stroke-width="0" stroke-opacity="1"></use></g></g><g><use xlink:href="#gqffMiq98" opacity="1" fill="#ffffff" fill-opacity="0.75"></use><g><use xlink:href="#gqffMiq98" opacity="1" fill-opacity="0" stroke="#4f2904" stroke-width="0" stroke-opacity="1"></use></g></g><g><use xlink:href="#dASmNEv33" opacity="1" fill="#35b285" fill-opacity="1"></use><g><use xlink:href="#dASmNEv33" opacity="1" fill-opacity="0" stroke="#000000" stroke-width="0" stroke-opacity="1"></use></g></g><g><use xlink:href="#bfpdnf3oV" opacity="1" fill="#35b285" fill-opacity="1"></use><g><use xlink:href="#bfpdnf3oV" opacity="1" fill-opacity="0" stroke="#000000" stroke-width="0" stroke-opacity="1"></use></g></g><g><use xlink:href="#a3m6E5AFxZ" opacity="1" fill="#35b285" fill-opacity="1"></use></g><g><use xlink:href="#a4MpS5y5Qw" opacity="1" fill="#35b285" fill-opacity="1"></use><g><use xlink:href="#a4MpS5y5Qw" opacity="1" fill-opacity="0" stroke="#4f2904" stroke-width="0" stroke-opacity="1"></use></g></g></g></g></svg>